<?xml version="1.0" encoding="UTF-8" standalone="no"?>
<!DOCTYPE svg PUBLIC "-//W3C//DTD SVG 1.1//EN"
 "http://www.w3.org/Graphics/SVG/1.1/DTD/svg11.dtd">
<!-- Generated by graphviz version 2.36.0 (20140111.2315)
 -->
<!-- Title: %3 Pages: 1 -->
<svg width="712pt" height="1309pt"
 viewBox="0.00 0.00 712.21 1309.00" xmlns="http://www.w3.org/2000/svg" xmlns:xlink="http://www.w3.org/1999/xlink">
<g id="graph0" class="graph" transform="scale(1 1) rotate(0) translate(4 1305)">
<title>%3</title>
<polygon fill="white" stroke="none" points="-4,4 -4,-1305 708.215,-1305 708.215,4 -4,4"/>
<text text-anchor="middle" x="352.107" y="-7.8" font-family="Times,serif" font-size="14.00">ENQ processing</text>
<!-- start -->
<g id="node1" class="node"><title>start</title>
<polygon fill="none" stroke="black" points="623.215,-1301 549.215,-1301 549.215,-1265 623.215,-1265 623.215,-1301"/>
<text text-anchor="middle" x="586.215" y="-1279.3" font-family="Times,serif" font-size="14.00">New ENQ</text>
</g>
<!-- application_support -->
<g id="node4" class="node"><title>application_support</title>
<polygon fill="none" stroke="black" points="586.215,-1227 468.215,-1144 586.215,-1061 704.215,-1144 586.215,-1227"/>
<text text-anchor="middle" x="586.215" y="-1170.3" font-family="Times,serif" font-size="14.00">Reporting an issue</text>
<text text-anchor="middle" x="586.215" y="-1155.3" font-family="Times,serif" font-size="14.00">running a job</text>
<text text-anchor="middle" x="586.215" y="-1140.3" font-family="Times,serif" font-size="14.00">or using</text>
<text text-anchor="middle" x="586.215" y="-1125.3" font-family="Times,serif" font-size="14.00">a particular</text>
<text text-anchor="middle" x="586.215" y="-1110.3" font-family="Times,serif" font-size="14.00">application?</text>
</g>
<!-- start&#45;&gt;application_support -->
<g id="edge1" class="edge"><title>start&#45;&gt;application_support</title>
<path fill="none" stroke="black" d="M586.215,-1264.93C586.215,-1257.32 586.215,-1247.71 586.215,-1237.26"/>
<polygon fill="black" stroke="black" points="589.715,-1237.03 586.215,-1227.03 582.715,-1237.03 589.715,-1237.03"/>
</g>
<!-- req_access -->
<g id="node2" class="node"><title>req_access</title>
<polygon fill="none" stroke="black" points="392.215,-813 315.215,-730 392.215,-647 469.215,-730 392.215,-813"/>
<text text-anchor="middle" x="392.215" y="-756.3" font-family="Times,serif" font-size="14.00">Requesting</text>
<text text-anchor="middle" x="392.215" y="-741.3" font-family="Times,serif" font-size="14.00">system</text>
<text text-anchor="middle" x="392.215" y="-726.3" font-family="Times,serif" font-size="14.00">access</text>
<text text-anchor="middle" x="392.215" y="-711.3" font-family="Times,serif" font-size="14.00">for self</text>
<text text-anchor="middle" x="392.215" y="-696.3" font-family="Times,serif" font-size="14.00">or other?</text>
</g>
<!-- already_tried_ss -->
<g id="node5" class="node"><title>already_tried_ss</title>
<polygon fill="none" stroke="black" points="392.215,-557 286.715,-519 392.215,-481 497.715,-519 392.215,-557"/>
<text text-anchor="middle" x="392.215" y="-522.8" font-family="Times,serif" font-size="14.00">Tried</text>
<text text-anchor="middle" x="392.215" y="-507.8" font-family="Times,serif" font-size="14.00">self&#45;enrollment?</text>
</g>
<!-- req_access&#45;&gt;already_tried_ss -->
<g id="edge2" class="edge"><title>req_access&#45;&gt;already_tried_ss</title>
<path fill="none" stroke="black" d="M392.215,-646.998C392.215,-619.901 392.215,-590.686 392.215,-567.117"/>
<polygon fill="black" stroke="black" points="395.715,-567.049 392.215,-557.049 388.715,-567.049 395.715,-567.049"/>
<text text-anchor="middle" x="401.715" y="-598.3" font-family="Times,serif" font-size="14.00">yes</text>
</g>
<!-- cant_connect -->
<g id="node12" class="node"><title>cant_connect</title>
<polygon fill="none" stroke="black" points="164.215,-557 74.2149,-519 164.215,-481 254.215,-519 164.215,-557"/>
<text text-anchor="middle" x="164.215" y="-522.8" font-family="Times,serif" font-size="14.00">Can&#39;t connect</text>
<text text-anchor="middle" x="164.215" y="-507.8" font-family="Times,serif" font-size="14.00">to system</text>
</g>
<!-- req_access&#45;&gt;cant_connect -->
<g id="edge16" class="edge"><title>req_access&#45;&gt;cant_connect</title>
<path fill="none" stroke="black" d="M350.926,-691.152C307.646,-651.478 240.369,-589.808 199.489,-552.335"/>
<polygon fill="black" stroke="black" points="201.664,-549.58 191.927,-545.403 196.934,-554.74 201.664,-549.58"/>
<text text-anchor="middle" x="285.215" y="-598.3" font-family="Times,serif" font-size="14.00">no</text>
</g>
<!-- software_install -->
<g id="node3" class="node"><title>software_install</title>
<polygon fill="none" stroke="black" points="512.215,-1009 429.215,-956 512.215,-903 595.215,-956 512.215,-1009"/>
<text text-anchor="middle" x="512.215" y="-967.3" font-family="Times,serif" font-size="14.00">Requesting</text>
<text text-anchor="middle" x="512.215" y="-952.3" font-family="Times,serif" font-size="14.00">software</text>
<text text-anchor="middle" x="512.215" y="-937.3" font-family="Times,serif" font-size="14.00">installation?</text>
</g>
<!-- software_install&#45;&gt;req_access -->
<g id="edge11" class="edge"><title>software_install&#45;&gt;req_access</title>
<path fill="none" stroke="black" d="M491.449,-916.238C473.191,-882.156 446.302,-831.962 425.117,-792.418"/>
<polygon fill="black" stroke="black" points="427.947,-790.288 420.14,-783.126 421.777,-793.594 427.947,-790.288"/>
<text text-anchor="middle" x="481.215" y="-854.3" font-family="Times,serif" font-size="14.00">no</text>
</g>
<!-- convert_to_sr_ritm -->
<g id="node7" class="node"><title>convert_to_sr_ritm</title>
<polygon fill="none" stroke="black" points="600.215,-628.5 470.215,-628.5 470.215,-575.5 600.215,-575.5 600.215,-628.5"/>
<text text-anchor="middle" x="535.215" y="-613.3" font-family="Times,serif" font-size="14.00">Convert to</text>
<text text-anchor="middle" x="535.215" y="-598.3" font-family="Times,serif" font-size="14.00">Software Installation</text>
<text text-anchor="middle" x="535.215" y="-583.3" font-family="Times,serif" font-size="14.00">RITM</text>
</g>
<!-- software_install&#45;&gt;convert_to_sr_ritm -->
<g id="edge6" class="edge"><title>software_install&#45;&gt;convert_to_sr_ritm</title>
<path fill="none" stroke="black" d="M515.486,-904.941C520.187,-832.991 528.741,-702.071 532.866,-638.94"/>
<polygon fill="black" stroke="black" points="536.377,-638.896 533.536,-628.689 529.392,-638.44 536.377,-638.896"/>
<text text-anchor="middle" x="529.715" y="-854.3" font-family="Times,serif" font-size="14.00">yes</text>
</g>
<!-- application_support&#45;&gt;software_install -->
<g id="edge5" class="edge"><title>application_support&#45;&gt;software_install</title>
<path fill="none" stroke="black" d="M560.645,-1078.73C551.438,-1055.59 541.184,-1029.81 532.49,-1007.96"/>
<polygon fill="black" stroke="black" points="535.69,-1006.54 528.741,-998.54 529.186,-1009.13 535.69,-1006.54"/>
<text text-anchor="middle" x="551.215" y="-1031.3" font-family="Times,serif" font-size="14.00">no</text>
</g>
<!-- convert_to_ae_ritm -->
<g id="node8" class="node"><title>convert_to_ae_ritm</title>
<polygon fill="none" stroke="black" points="660.215,-884.5 586.215,-884.5 586.215,-831.5 660.215,-831.5 660.215,-884.5"/>
<text text-anchor="middle" x="623.215" y="-869.3" font-family="Times,serif" font-size="14.00">Convert to</text>
<text text-anchor="middle" x="623.215" y="-854.3" font-family="Times,serif" font-size="14.00">Job Error</text>
<text text-anchor="middle" x="623.215" y="-839.3" font-family="Times,serif" font-size="14.00">RITM</text>
</g>
<!-- application_support&#45;&gt;convert_to_ae_ritm -->
<g id="edge12" class="edge"><title>application_support&#45;&gt;convert_to_ae_ritm</title>
<path fill="none" stroke="black" d="M596.406,-1067.89C598.982,-1048.69 601.724,-1028.09 604.215,-1009 609.304,-970 614.945,-925.268 618.748,-894.874"/>
<polygon fill="black" stroke="black" points="622.245,-895.111 620.013,-884.754 615.299,-894.242 622.245,-895.111"/>
<text text-anchor="middle" x="610.715" y="-1031.3" font-family="Times,serif" font-size="14.00">yes</text>
</g>
<!-- raise_as_ritm -->
<g id="node6" class="node"><title>raise_as_ritm</title>
<polygon fill="none" stroke="black" points="556.465,-410 461.965,-410 461.965,-372 556.465,-372 556.465,-410"/>
<text text-anchor="middle" x="509.215" y="-394.8" font-family="Times,serif" font-size="14.00">Convert to</text>
<text text-anchor="middle" x="509.215" y="-379.8" font-family="Times,serif" font-size="14.00">generic RITM</text>
</g>
<!-- already_tried_ss&#45;&gt;raise_as_ritm -->
<g id="edge3" class="edge"><title>already_tried_ss&#45;&gt;raise_as_ritm</title>
<path fill="none" stroke="black" d="M418.181,-490.037C438.239,-468.436 465.779,-438.777 485.301,-417.753"/>
<polygon fill="black" stroke="black" points="488.118,-419.863 492.358,-410.153 482.989,-415.1 488.118,-419.863"/>
<text text-anchor="middle" x="467.715" y="-451.3" font-family="Times,serif" font-size="14.00">yes</text>
</g>
<!-- direct_to_kb -->
<g id="node17" class="node"><title>direct_to_kb</title>
<polygon fill="none" stroke="black" points="443.465,-410 306.965,-410 306.965,-372 443.465,-372 443.465,-410"/>
<text text-anchor="middle" x="375.215" y="-394.8" font-family="Times,serif" font-size="14.00">Refer customer to KB</text>
<text text-anchor="middle" x="375.215" y="-379.8" font-family="Times,serif" font-size="14.00">for self&#45;service</text>
</g>
<!-- already_tried_ss&#45;&gt;direct_to_kb -->
<g id="edge4" class="edge"><title>already_tried_ss&#45;&gt;direct_to_kb</title>
<path fill="none" stroke="black" d="M387.434,-482.567C384.774,-462.852 381.509,-438.652 379.023,-420.228"/>
<polygon fill="black" stroke="black" points="382.466,-419.568 377.66,-410.126 375.529,-420.504 382.466,-419.568"/>
<text text-anchor="middle" x="392.215" y="-451.3" font-family="Times,serif" font-size="14.00">no</text>
</g>
<!-- has_all_information -->
<g id="node10" class="node"><title>has_all_information</title>
<polygon fill="none" stroke="black" points="576.215,-301 482.215,-263 576.215,-225 670.215,-263 576.215,-301"/>
<text text-anchor="middle" x="576.215" y="-266.8" font-family="Times,serif" font-size="14.00">All required</text>
<text text-anchor="middle" x="576.215" y="-251.8" font-family="Times,serif" font-size="14.00">info supplied?</text>
</g>
<!-- raise_as_ritm&#45;&gt;has_all_information -->
<g id="edge14" class="edge"><title>raise_as_ritm&#45;&gt;has_all_information</title>
<path fill="none" stroke="black" d="M518.814,-371.947C528.27,-354.166 543.025,-326.416 555.208,-303.505"/>
<polygon fill="black" stroke="black" points="558.3,-305.145 559.905,-294.672 552.12,-301.858 558.3,-305.145"/>
</g>
<!-- convert_to_sr_ritm&#45;&gt;has_all_information -->
<g id="edge7" class="edge"><title>convert_to_sr_ritm&#45;&gt;has_all_information</title>
<path fill="none" stroke="black" d="M540.54,-575.482C547.323,-542.007 558.921,-481.366 565.215,-429 569.991,-389.262 572.828,-343.871 574.421,-310.77"/>
<polygon fill="black" stroke="black" points="577.931,-310.628 574.895,-300.477 570.938,-310.305 577.931,-310.628"/>
</g>
<!-- convert_to_ae_ritm&#45;&gt;has_all_information -->
<g id="edge13" class="edge"><title>convert_to_ae_ritm&#45;&gt;has_all_information</title>
<path fill="none" stroke="black" d="M623.215,-831.402C623.215,-785.593 623.215,-686.564 623.215,-603 623.215,-603 623.215,-603 623.215,-390 623.215,-359.495 610.972,-327.307 598.983,-303.1"/>
<polygon fill="black" stroke="black" points="601.939,-301.195 594.252,-293.905 595.715,-304.398 601.939,-301.195"/>
</g>
<!-- raise_as_inc -->
<g id="node9" class="node"><title>raise_as_inc</title>
<polygon fill="none" stroke="black" points="135.465,-153 34.9649,-153 34.9649,-117 135.465,-117 135.465,-153"/>
<text text-anchor="middle" x="85.2149" y="-131.3" font-family="Times,serif" font-size="14.00">Convert to INC</text>
</g>
<!-- end -->
<g id="node18" class="node"><title>end</title>
<polygon fill="none" stroke="black" points="544.465,-59 399.965,-59 399.965,-23 544.465,-23 544.465,-59"/>
<text text-anchor="middle" x="472.215" y="-37.3" font-family="Times,serif" font-size="14.00">Assign to HPC Support</text>
</g>
<!-- raise_as_inc&#45;&gt;end -->
<g id="edge15" class="edge"><title>raise_as_inc&#45;&gt;end</title>
<path fill="none" stroke="black" d="M107.643,-116.996C118.221,-109.769 131.33,-101.896 144.215,-97 224.303,-66.568 321.745,-52.9362 389.516,-46.8531"/>
<polygon fill="black" stroke="black" points="390.05,-50.3202 399.713,-45.9747 389.449,-43.346 390.05,-50.3202"/>
</g>
<!-- collect_info -->
<g id="node11" class="node"><title>collect_info</title>
<polygon fill="none" stroke="black" points="572.617,-173 411.309,-173 369.812,-97 531.121,-97 572.617,-173"/>
<text text-anchor="middle" x="471.215" y="-138.8" font-family="Times,serif" font-size="14.00">Collect info</text>
<text text-anchor="middle" x="471.215" y="-123.8" font-family="Times,serif" font-size="14.00">from customer</text>
</g>
<!-- has_all_information&#45;&gt;collect_info -->
<g id="edge9" class="edge"><title>has_all_information&#45;&gt;collect_info</title>
<path fill="none" stroke="black" d="M544.833,-237.387C534.445,-228.43 523.243,-217.832 514.215,-207 507.779,-199.279 501.658,-190.495 496.158,-181.8"/>
<polygon fill="black" stroke="black" points="499.085,-179.876 490.877,-173.177 493.116,-183.533 499.085,-179.876"/>
<text text-anchor="middle" x="521.215" y="-195.3" font-family="Times,serif" font-size="14.00">no</text>
</g>
<!-- has_all_information&#45;&gt;end -->
<g id="edge8" class="edge"><title>has_all_information&#45;&gt;end</title>
<path fill="none" stroke="black" d="M587.145,-229.219C596.815,-193.829 605.926,-137.148 581.215,-97 572.206,-82.3632 557.968,-71.4807 542.719,-63.4426"/>
<polygon fill="black" stroke="black" points="544.178,-60.2604 533.654,-59.0317 541.115,-66.5547 544.178,-60.2604"/>
<text text-anchor="middle" x="605.715" y="-131.3" font-family="Times,serif" font-size="14.00">yes</text>
</g>
<!-- collect_info&#45;&gt;has_all_information -->
<g id="edge10" class="edge"><title>collect_info&#45;&gt;has_all_information</title>
<path fill="none" stroke="black" d="M511.854,-173.156C517.549,-178.944 523.172,-184.999 528.215,-191 536.674,-201.067 545.014,-212.644 552.307,-223.49"/>
<polygon fill="black" stroke="black" points="549.486,-225.569 557.915,-231.988 555.329,-221.714 549.486,-225.569"/>
</g>
<!-- cant_connect&#45;&gt;raise_as_inc -->
<g id="edge22" class="edge"><title>cant_connect&#45;&gt;raise_as_inc</title>
<path fill="none" stroke="black" d="M118.327,-500.202C88.0183,-485.842 50.462,-462.481 31.2149,-429 -14.0071,-350.336 -3.966,-311.57 23.2149,-225 30.7773,-200.914 47.4222,-177.647 61.5629,-160.947"/>
<polygon fill="black" stroke="black" points="64.3017,-163.132 68.2528,-153.301 59.0337,-158.522 64.3017,-163.132"/>
<text text-anchor="middle" x="8.21487" y="-323.3" font-family="Times,serif" font-size="14.00">no</text>
</g>
<!-- on_ic_network -->
<g id="node13" class="node"><title>on_ic_network</title>
<polygon fill="none" stroke="black" points="164.215,-429 40.2149,-391 164.215,-353 288.215,-391 164.215,-429"/>
<text text-anchor="middle" x="164.215" y="-394.8" font-family="Times,serif" font-size="14.00">On college network</text>
<text text-anchor="middle" x="164.215" y="-379.8" font-family="Times,serif" font-size="14.00"> or VPN?</text>
</g>
<!-- cant_connect&#45;&gt;on_ic_network -->
<g id="edge17" class="edge"><title>cant_connect&#45;&gt;on_ic_network</title>
<path fill="none" stroke="black" d="M164.215,-480.877C164.215,-467.92 164.215,-453.194 164.215,-439.509"/>
<polygon fill="black" stroke="black" points="167.715,-439.293 164.215,-429.293 160.715,-439.293 167.715,-439.293"/>
<text text-anchor="middle" x="173.715" y="-451.3" font-family="Times,serif" font-size="14.00">yes</text>
</g>
<!-- check_incs -->
<g id="node14" class="node"><title>check_incs</title>
<polygon fill="none" stroke="black" points="172.215,-301 32.2149,-263 172.215,-225 312.215,-263 172.215,-301"/>
<text text-anchor="middle" x="172.215" y="-266.8" font-family="Times,serif" font-size="14.00">Is there an outstanding</text>
<text text-anchor="middle" x="172.215" y="-251.8" font-family="Times,serif" font-size="14.00">INC for this service?</text>
</g>
<!-- on_ic_network&#45;&gt;check_incs -->
<g id="edge19" class="edge"><title>on_ic_network&#45;&gt;check_incs</title>
<path fill="none" stroke="black" d="M166.529,-353.556C167.375,-340.221 168.345,-324.943 169.242,-310.828"/>
<polygon fill="black" stroke="black" points="172.738,-311.001 169.878,-300.799 165.752,-310.557 172.738,-311.001"/>
<text text-anchor="middle" x="178.715" y="-323.3" font-family="Times,serif" font-size="14.00">yes</text>
</g>
<!-- vpn_kb -->
<g id="node16" class="node"><title>vpn_kb</title>
<polygon fill="none" stroke="black" points="455.465,-282 330.965,-282 330.965,-244 455.465,-244 455.465,-282"/>
<text text-anchor="middle" x="393.215" y="-266.8" font-family="Times,serif" font-size="14.00">Refer customer</text>
<text text-anchor="middle" x="393.215" y="-251.8" font-family="Times,serif" font-size="14.00">to VPN instructions</text>
</g>
<!-- on_ic_network&#45;&gt;vpn_kb -->
<g id="edge18" class="edge"><title>on_ic_network&#45;&gt;vpn_kb</title>
<path fill="none" stroke="black" d="M207.557,-366.152C248.906,-343.401 310.766,-309.365 351.549,-286.925"/>
<polygon fill="black" stroke="black" points="353.348,-289.93 360.422,-282.043 349.974,-283.797 353.348,-289.93"/>
<text text-anchor="middle" x="300.215" y="-323.3" font-family="Times,serif" font-size="14.00">no</text>
</g>
<!-- check_incs&#45;&gt;raise_as_inc -->
<g id="edge20" class="edge"><title>check_incs&#45;&gt;raise_as_inc</title>
<path fill="none" stroke="black" d="M150.486,-230.53C135.755,-209.196 116.536,-181.362 102.774,-161.431"/>
<polygon fill="black" stroke="black" points="105.618,-159.389 97.0556,-153.149 99.8574,-163.366 105.618,-159.389"/>
<text text-anchor="middle" x="141.215" y="-195.3" font-family="Times,serif" font-size="14.00">no</text>
</g>
<!-- link_to_inc -->
<g id="node15" class="node"><title>link_to_inc</title>
<polygon fill="none" stroke="black" points="308.465,-153 153.965,-153 153.965,-117 308.465,-117 308.465,-153"/>
<text text-anchor="middle" x="231.215" y="-131.3" font-family="Times,serif" font-size="14.00">Associate ENQ with INC</text>
</g>
<!-- check_incs&#45;&gt;link_to_inc -->
<g id="edge21" class="edge"><title>check_incs&#45;&gt;link_to_inc</title>
<path fill="none" stroke="black" d="M187.716,-228.895C197.472,-208.062 209.886,-181.551 218.953,-162.187"/>
<polygon fill="black" stroke="black" points="222.162,-163.587 223.233,-153.046 215.823,-160.618 222.162,-163.587"/>
<text text-anchor="middle" x="215.715" y="-195.3" font-family="Times,serif" font-size="14.00">yes</text>
</g>
</g>
</svg>
